<svg version="1.1" xmlns="http://www.w3.org/2000/svg" xmlns:xlink="http://www.w3.org/1999/xlink" viewBox="0 0 172 172" width="172"  height="172" ><g fill="none" fill-rule="nonzero" stroke="none" stroke-width="1" stroke-linecap="butt" stroke-linejoin="miter" stroke-miterlimit="10" stroke-dasharray="" stroke-dashoffset="0" font-family="none" font-weight="none" font-size="none" text-anchor="none" style="mix-blend-mode: normal"><path d="M0,172v-172h172v172z" fill="none"></path><g fill="#ffffff"><path d="M22.704,168.56h66.048c11.008,0 19.952,-8.944 19.952,-19.952v-125.216c0,-11.008 -8.944,-19.952 -19.952,-19.952h-66.048c-11.008,0 -19.952,8.944 -19.952,19.952v124.528c0,11.696 8.944,20.64 19.952,20.64zM33.024,146.544c-3.44,0 -6.88,-3.44 -6.88,-6.88c0,-3.44 3.44,-6.88 6.88,-6.88c4.128,0 6.88,3.44 6.88,6.88c0,3.44 -2.752,6.88 -6.88,6.88zM33.024,125.904c-3.44,0 -6.88,-3.44 -6.88,-6.88c0,-3.44 3.44,-6.88 6.88,-6.88c4.128,0 6.88,3.44 6.88,6.88c0,3.44 -2.752,6.88 -6.88,6.88zM33.024,105.264c-3.44,0 -6.88,-3.44 -6.88,-6.88c0,-3.44 3.44,-6.88 6.88,-6.88c4.128,0 6.88,3.44 6.88,6.88c0,3.44 -2.752,6.88 -6.88,6.88zM55.728,146.544c-4.128,0 -6.88,-3.44 -6.88,-6.88c0,-3.44 2.752,-6.88 6.88,-6.88c4.128,0 6.88,3.44 6.88,6.88c0,3.44 -3.44,6.88 -6.88,6.88zM55.728,125.904c-4.128,0 -6.88,-3.44 -6.88,-6.88c0,-3.44 2.752,-6.88 6.88,-6.88c4.128,0 6.88,3.44 6.88,6.88c0,3.44 -3.44,6.88 -6.88,6.88zM55.728,105.264c-4.128,0 -6.88,-3.44 -6.88,-6.88c0,-3.44 2.752,-6.88 6.88,-6.88c4.128,0 6.88,3.44 6.88,6.88c0,3.44 -3.44,6.88 -6.88,6.88zM77.744,146.544c-3.44,0 -6.88,-3.44 -6.88,-6.88c0,-3.44 2.752,-6.88 6.88,-6.88c4.128,0 6.88,3.44 6.88,6.88c0,3.44 -2.752,6.88 -6.88,6.88zM77.744,125.904c-3.44,0 -6.88,-3.44 -6.88,-6.88c0,-3.44 2.752,-6.88 6.88,-6.88c4.128,0 6.88,3.44 6.88,6.88c0,3.44 -2.752,6.88 -6.88,6.88zM77.744,105.264c-3.44,0 -6.88,-3.44 -6.88,-6.88c0,-3.44 2.752,-6.88 6.88,-6.88c4.128,0 6.88,3.44 6.88,6.88c0,3.44 -2.752,6.88 -6.88,6.88zM19.952,30.96c0,-4.128 3.44,-6.88 6.88,-6.88h58.48c4.128,0 6.88,2.752 6.88,6.88v37.152c0,3.44 -2.752,6.88 -6.88,6.88h-58.48c-3.44,0 -6.88,-3.44 -6.88,-6.88zM169.248,129.344v-91.504c0,-6.88 -5.504,-11.696 -11.696,-11.696h-35.088v114.896h35.088c6.88,0 11.696,-5.504 11.696,-11.696z"></path></g></g></svg>
